<svg width="26" height="30" viewBox="0 0 26 30" fill="none" xmlns="http://www.w3.org/2000/svg">
<path d="M1 15C0.998972 12.3575 1.87019 9.78861 3.47845 7.69191C5.08671 5.59521 7.34207 4.08798 9.89452 3.40413C12.447 2.72029 15.1538 2.89807 17.5949 3.90988C20.0359 4.9217 22.0748 6.71097 23.395 9.00001" stroke="white" stroke-width="2" stroke-linecap="round" stroke-linejoin="round"/>
<path d="M25 15C25.001 17.6425 24.1298 20.2114 22.5215 22.3081C20.9133 24.4048 18.6579 25.912 16.1055 26.5959C13.553 27.2797 10.8462 27.1019 8.40514 26.0901C5.96405 25.0783 3.9252 23.289 2.605 21" stroke="white" stroke-width="2" stroke-linecap="round" stroke-linejoin="round"/>
<path d="M16 9H23.5V1.5" stroke="white" stroke-width="2" stroke-linecap="round" stroke-linejoin="round"/>
<path d="M10 21H2.5V28.5" stroke="white" stroke-width="2" stroke-linecap="round" stroke-linejoin="round"/>
</svg>
