<svg width="25" height="35" viewBox="0 0 25 35" fill="none" xmlns="http://www.w3.org/2000/svg">
<path d="M24.6879 2.02V33.3116C24.6873 33.6098 24.5685 33.8955 24.3577 34.1064C24.1469 34.3172 23.8611 34.436 23.5629 34.4366H1.43948C1.1413 34.436 0.855515 34.3172 0.644672 34.1064C0.433829 33.8955 0.315102 33.6098 0.314476 33.3116V2.02C0.315102 1.72183 0.433829 1.43604 0.644672 1.2252C0.855515 1.01436 1.1413 0.89563 1.43948 0.895004H23.5653C23.8634 0.89563 24.1492 1.01436 24.3601 1.2252C24.5709 1.43604 24.6873 1.72183 24.6879 2.02ZM22.0637 3.51921H2.93632V9.97553H22.0637V3.51921ZM6.94132 15.3874C6.94069 14.8907 6.74311 14.4146 6.39191 14.0634C6.04071 13.7122 5.56457 13.5146 5.0679 13.514H5.06079C4.80901 13.505 4.558 13.5469 4.32275 13.637C4.0875 13.7272 3.87283 13.8639 3.69154 14.0388C3.51025 14.2138 3.36607 14.4235 3.26759 14.6554C3.16911 14.8873 3.11836 15.1366 3.11836 15.3886C3.11836 15.6405 3.16911 15.8899 3.26759 16.1218C3.36607 16.3537 3.51025 16.5633 3.69154 16.7383C3.87283 16.9133 4.0875 17.0499 4.32275 17.1401C4.558 17.2302 4.80901 17.2721 5.06079 17.2632H5.0679C5.56498 17.2625 6.04148 17.0646 6.39275 16.7129C6.74402 16.3612 6.94132 15.8845 6.94132 15.3874ZM6.94132 21.6258C6.94069 21.1291 6.74311 20.653 6.39191 20.3018C6.04071 19.9506 5.56457 19.753 5.0679 19.7524H5.06079C4.80901 19.7434 4.558 19.7853 4.32275 19.8755C4.0875 19.9656 3.87283 20.1023 3.69154 20.2772C3.51025 20.4522 3.36607 20.6619 3.26759 20.8938C3.16911 21.1257 3.11836 21.375 3.11836 21.627C3.11836 21.8789 3.16911 22.1283 3.26759 22.3602C3.36607 22.5921 3.51025 22.8018 3.69154 22.9767C3.87283 23.1517 4.0875 23.2883 4.32275 23.3785C4.558 23.4687 4.80901 23.5105 5.06079 23.5016H5.0679C5.56498 23.501 6.04148 23.303 6.39275 22.9513C6.74402 22.5996 6.94132 22.1229 6.94132 21.6258ZM6.94132 27.8642C6.94069 27.3675 6.74311 26.8914 6.39191 26.5402C6.04071 26.189 5.56457 25.9914 5.0679 25.9908H5.06079C4.80901 25.9818 4.558 26.0237 4.32275 26.1139C4.0875 26.2041 3.87283 26.3407 3.69154 26.5157C3.51025 26.6906 3.36607 26.9003 3.26759 27.1322C3.16911 27.3641 3.11836 27.6135 3.11836 27.8654C3.11836 28.1173 3.16911 28.3667 3.26759 28.5986C3.36607 28.8305 3.51025 29.0402 3.69154 29.2151C3.87283 29.3901 4.0875 29.5267 4.32275 29.6169C4.558 29.7071 4.80901 29.749 5.06079 29.74H5.0679C5.56498 29.7394 6.04148 29.5415 6.39275 29.1898C6.74402 28.8381 6.94132 28.3613 6.94132 27.8642ZM14.1413 21.6258C14.1407 21.1287 13.9428 20.6522 13.5911 20.3009C13.2394 19.9497 12.7626 19.7524 12.2655 19.7524C12.0137 19.7434 11.7604 19.7853 11.5251 19.8755C11.2899 19.9656 11.0752 20.1023 10.8939 20.2772C10.7126 20.4522 10.5684 20.6619 10.47 20.8938C10.3715 21.1257 10.3207 21.375 10.3207 21.627C10.3207 21.8789 10.3715 22.1283 10.47 22.3602C10.5684 22.5921 10.7126 22.8018 10.8939 22.9767C11.0752 23.1517 11.2899 23.2883 11.5251 23.3785C11.7604 23.4687 12.0114 23.5105 12.2632 23.5016C12.7607 23.5016 13.2378 23.304 13.5895 22.9522C13.9413 22.6004 14.1413 22.1233 14.1413 21.6258ZM14.1413 27.8642C14.1407 27.3671 13.9428 26.8906 13.5911 26.5394C13.2394 26.1881 12.7626 25.9908 12.2655 25.9908C12.0137 25.9818 11.7604 26.0237 11.5251 26.1139C11.2899 26.2041 11.0752 26.3407 10.8939 26.5157C10.7126 26.6906 10.5684 26.9003 10.47 27.1322C10.3715 27.3641 10.3207 27.6135 10.3207 27.8654C10.3207 28.1173 10.3715 28.3667 10.47 28.5986C10.5684 28.8305 10.7126 29.0402 10.8939 29.2151C11.0752 29.3901 11.2899 29.5267 11.5251 29.6169C11.7604 29.7071 12.0114 29.749 12.2632 29.74C12.7607 29.74 13.2378 29.5424 13.5895 29.1906C13.9413 28.8388 14.1413 28.3617 14.1413 27.8642ZM14.255 15.3874C14.2544 14.8907 14.0568 14.4146 13.7056 14.0634C13.3544 13.7122 12.8783 13.5146 12.3816 13.514H12.3697C11.8841 13.5312 11.4241 13.7363 11.0866 14.0859C10.7492 14.4356 10.5606 14.9026 10.5606 15.3886C10.5606 15.8745 10.7492 16.3415 11.0866 16.6912C11.4241 17.0408 11.8841 17.2459 12.3697 17.2632H12.3816C12.8787 17.2625 13.3552 17.0646 13.7064 16.7129C14.0577 16.3612 14.255 15.8845 14.255 15.3874ZM21.5639 15.3874C21.5633 14.8903 21.3654 14.4138 21.0137 14.0625C20.662 13.7113 20.1852 13.514 19.6882 13.514H19.6834C19.1978 13.5312 18.7378 13.7363 18.4003 14.0859C18.0629 14.4356 17.8743 14.9026 17.8743 15.3886C17.8743 15.8745 18.0629 16.3415 18.4003 16.6912C18.7378 17.0408 19.1978 17.2459 19.6834 17.2632H19.6882C20.1857 17.2632 20.6628 17.0655 21.0145 16.7138C21.3663 16.362 21.5639 15.8849 21.5639 15.3874ZM21.5639 21.5145C21.5639 21.017 21.3663 20.5399 21.0145 20.1881C20.6628 19.8363 20.1857 19.6387 19.6882 19.6387C19.1907 19.6387 18.7136 19.8363 18.3618 20.1881C18.01 20.5399 17.8124 21.017 17.8124 21.5145V27.8642C17.8124 28.3617 18.01 28.8388 18.3618 29.1906C18.7136 29.5424 19.1907 29.74 19.6882 29.74C20.1857 29.74 20.6628 29.5424 21.0145 29.1906C21.3663 28.8388 21.5639 28.3617 21.5639 27.8642V21.5145Z" fill="white"/>
</svg>
